<?xml version="1.0" standalone="no"?>
<!DOCTYPE svg PUBLIC "-//W3C//DTD SVG 20010904//EN"
 "http://www.w3.org/TR/2001/REC-SVG-20010904/DTD/svg10.dtd">
<svg version="1.0" xmlns="http://www.w3.org/2000/svg"
 width="1050.000000pt" height="1257.000000pt" viewBox="0 0 1050.000000 1257.000000"
 preserveAspectRatio="xMidYMid meet">

<g transform="translate(0.000000,1257.000000) scale(0.100000,-0.100000)"
fill="#000000" stroke="none">
<path d="M5339 11366 c-6 -7 -282 -29 -328 -27 -13 0 -42 -5 -65 -13 -60 -20
-240 -38 -411 -40 -165 -3 -249 -20 -258 -55 -5 -20 -54 -36 -158 -50 -30 -5
-65 -13 -76 -19 -11 -6 -53 -13 -93 -16 -39 -2 -74 -7 -78 -10 -3 -3 2 -6 11
-6 10 0 17 -4 17 -10 0 -5 -6 -10 -13 -10 -7 0 -18 -5 -24 -11 -13 -13 -238
-89 -262 -89 -20 0 -141 -120 -141 -140 0 -46 -79 -120 -127 -120 -43 0 -178
-90 -187 -125 -3 -12 -17 -27 -31 -33 -29 -13 -55 -66 -55 -111 0 -25 -10 -38
-64 -78 -82 -62 -102 -87 -109 -141 -3 -24 -12 -51 -21 -61 -19 -21 -21 -62
-4 -79 10 -10 10 -17 0 -32 -6 -11 -12 -26 -12 -33 0 -7 -29 -44 -65 -83 -60
-63 -65 -72 -60 -102 5 -27 -3 -53 -43 -135 -28 -56 -53 -120 -57 -142 -4 -22
-18 -73 -32 -114 l-25 -74 21 -54 c16 -43 19 -63 12 -101 -5 -26 -9 -87 -10
-137 -2 -82 0 -93 24 -125 22 -31 25 -43 24 -116 -1 -46 2 -87 5 -93 4 -5 13
-58 21 -118 7 -59 20 -124 28 -143 8 -19 19 -69 25 -110 7 -41 17 -109 23
-150 6 -41 18 -87 25 -102 8 -15 14 -41 14 -58 0 -17 7 -47 16 -68 9 -21 18
-81 21 -137 5 -92 8 -103 34 -133 33 -37 35 -58 13 -121 -19 -54 -12 -88 21
-103 14 -6 25 -14 25 -18 0 -4 14 -5 30 -2 17 2 37 -2 46 -9 13 -10 17 -10 24
1 7 11 11 11 24 1 9 -8 16 -21 16 -31 0 -10 16 -30 35 -44 30 -23 35 -33 35
-67 0 -21 4 -47 9 -57 14 -25 31 -130 25 -146 -3 -8 0 -56 7 -107 6 -52 13
-110 14 -130 2 -19 6 -82 11 -140 4 -57 8 -194 10 -304 1 -110 5 -228 9 -263
6 -46 4 -66 -6 -78 -11 -14 -10 -18 6 -30 10 -8 22 -14 26 -14 9 0 29 -106 29
-158 0 -94 67 -365 122 -489 33 -78 34 -78 -112 -168 -205 -127 -323 -229
-486 -420 -101 -120 -168 -178 -279 -244 -58 -35 -121 -82 -150 -113 -61 -65
-150 -110 -260 -133 -198 -40 -284 -84 -470 -240 -79 -66 -109 -86 -175 -114
-30 -13 -74 -32 -96 -42 -23 -10 -79 -30 -125 -44 -46 -15 -149 -53 -229 -85
-80 -32 -179 -68 -220 -80 -41 -13 -84 -26 -95 -31 -11 -4 -49 -17 -85 -28
-274 -83 -380 -138 -512 -262 -23 -22 -53 -45 -65 -50 l-23 -9 0 -1695 0
-1695 5250 0 5250 0 0 1169 c0 644 -4 1172 -8 1175 -15 9 -107 166 -172 291
-33 66 -74 134 -90 152 -15 17 -83 75 -150 130 -67 54 -145 117 -174 141 -81
67 -185 144 -256 188 -123 77 -165 100 -285 158 -246 120 -461 229 -489 249
-17 12 -44 28 -60 37 -68 35 -301 173 -369 218 -39 27 -93 62 -119 78 -30 18
-50 38 -54 54 -26 116 -94 210 -177 245 -106 45 -165 75 -203 103 -22 16 -101
107 -174 201 -115 148 -260 322 -314 377 -21 21 -213 182 -305 256 l-71 58 22
52 c11 29 27 70 35 92 7 21 21 52 30 70 28 54 59 187 83 361 10 72 23 150 30
175 7 25 14 70 16 100 3 30 10 82 16 115 7 36 11 143 9 265 -1 136 3 254 14
350 9 80 18 181 21 225 7 123 24 216 48 260 12 22 22 46 22 53 2 26 4 32 14
32 6 0 10 -9 10 -21 0 -11 5 -17 10 -14 6 4 8 11 4 16 -3 6 -3 32 1 59 5 36
12 51 26 55 10 4 19 13 19 22 0 9 6 13 14 10 9 -4 17 2 21 14 4 10 15 19 25
19 27 0 33 16 17 47 -14 25 -13 31 10 75 14 26 29 78 34 115 4 37 13 83 18
102 7 22 7 60 0 113 -9 73 -8 84 11 122 12 22 24 66 27 96 3 30 11 62 18 70
44 50 46 363 4 442 -14 26 -11 32 7 17 15 -12 16 -10 9 20 -4 19 -7 57 -7 85
0 29 -7 63 -17 79 -15 27 -15 29 7 46 13 10 23 26 21 37 -1 10 1 27 6 37 4 9
2 30 -4 45 -6 15 -13 39 -15 54 -2 15 -9 35 -14 44 -11 20 2 69 25 96 16 18 6
49 -20 65 -19 11 -50 93 -35 93 13 0 4 117 -13 171 -43 131 -130 310 -178 364
-60 68 -68 79 -48 72 30 -11 18 10 -18 32 -19 11 -35 24 -35 29 0 11 -268 282
-328 332 -23 19 -65 54 -94 77 -178 143 -286 237 -308 268 -14 20 -43 47 -66
60 -23 14 -50 35 -60 46 -20 22 -128 99 -139 99 -4 0 -21 6 -38 14 -18 7 -45
18 -60 25 -15 6 -31 19 -35 30 -10 25 -140 143 -194 175 -24 14 -72 33 -107
42 -59 15 -85 15 -195 1 -22 -3 -71 3 -115 14 -79 20 -241 36 -252 25z m565
-96 c14 -5 43 -27 65 -49 22 -22 51 -47 65 -56 24 -16 36 -45 18 -45 -4 0 -30
16 -57 35 -113 78 -131 88 -153 91 -31 3 -40 13 -22 24 19 12 52 12 84 0z
m-70 -1621 c-4 -7 1 -7 16 1 15 8 38 9 73 4 29 -5 60 -8 70 -6 9 1 17 -3 17
-8 0 -6 18 -10 40 -10 23 0 48 -7 59 -17 12 -10 42 -18 71 -20 58 -3 110 -26
110 -49 0 -10 6 -14 15 -10 18 6 61 -8 81 -28 7 -8 31 -17 53 -21 27 -4 50
-18 74 -43 19 -20 43 -44 53 -51 11 -10 13 -16 6 -19 -12 -4 44 -82 59 -82 4
0 20 -13 36 -28 26 -27 33 -62 12 -62 -5 0 -8 6 -6 13 1 7 -12 13 -33 15 l-34
4 28 -28 c21 -22 36 -28 66 -27 33 1 39 -2 44 -23 4 -13 11 -24 16 -24 6 0 10
-11 10 -24 0 -14 7 -31 15 -40 8 -8 15 -19 15 -25 0 -6 14 -20 30 -33 27 -20
39 -45 56 -120 2 -10 6 -26 8 -37 3 -10 9 -27 14 -37 19 -37 31 -70 36 -99 3
-16 9 -46 13 -65 6 -32 7 -73 2 -125 -3 -39 1 -55 16 -55 8 0 28 -12 44 -26
26 -23 28 -30 20 -52 -8 -20 -7 -28 6 -34 8 -5 13 -14 10 -19 -4 -5 -11 -7
-16 -4 -5 4 -9 -1 -9 -10 0 -9 5 -13 10 -10 6 4 10 -10 10 -35 0 -24 7 -48 16
-57 9 -9 12 -22 8 -32 -8 -17 -8 -16 1 -144 4 -67 11 -94 24 -109 11 -11 24
-40 30 -65 7 -25 23 -60 36 -78 20 -25 26 -48 30 -106 3 -41 7 -92 9 -114 5
-36 7 -52 20 -120 2 -11 7 -46 10 -78 4 -31 11 -55 15 -53 9 6 12 -56 14 -294
2 -279 -7 -396 -38 -504 -65 -221 -76 -280 -79 -406 -2 -65 1 -89 13 -104 15
-18 15 -19 0 -14 -13 5 -16 -2 -15 -43 1 -35 -2 -48 -11 -45 -7 3 -10 -1 -7
-9 3 -7 -4 -53 -16 -101 -12 -48 -23 -108 -24 -133 -2 -25 -8 -56 -14 -68 -7
-12 -9 -30 -5 -40 6 -16 5 -17 -11 -4 -16 13 -17 13 -15 0 6 -35 -34 -124 -52
-113 -5 3 -9 0 -9 -7 0 -6 -7 -17 -17 -24 -11 -8 -14 -18 -8 -31 10 -24 7 -56
-7 -69 -8 -7 -9 -6 -4 3 4 6 5 12 2 12 -3 0 -12 -13 -20 -28 -8 -15 -30 -46
-50 -68 -20 -21 -36 -43 -36 -47 0 -13 -63 -67 -77 -67 -7 0 -18 -9 -25 -20
-7 -11 -19 -20 -26 -20 -7 0 -15 -7 -19 -16 -3 -8 -11 -13 -18 -10 -8 3 -16
-2 -19 -10 -3 -9 -10 -13 -15 -9 -6 3 -33 -17 -60 -44 -28 -28 -81 -66 -118
-86 -37 -20 -86 -53 -108 -73 -62 -58 -122 -102 -139 -102 -9 0 -16 -4 -16
-10 0 -5 -15 -12 -34 -16 -19 -3 -42 -15 -52 -25 -9 -10 -21 -19 -26 -19 -5 0
-23 -13 -40 -29 -23 -21 -49 -33 -94 -41 -34 -7 -72 -21 -83 -31 -11 -10 -27
-19 -35 -19 -8 0 -18 -4 -21 -10 -4 -6 -13 -5 -24 2 -11 7 -26 8 -37 3 -11 -5
-32 -9 -49 -11 -16 -1 -37 -2 -46 -3 -9 0 -33 -13 -54 -27 -21 -14 -46 -23
-56 -21 -12 3 -20 -2 -24 -15 -4 -12 -11 -16 -18 -11 -17 12 -116 8 -130 -6
-14 -14 -41 -15 -32 -1 8 13 -1 13 -25 0 -12 -7 -28 -7 -44 0 -14 5 -26 6 -26
1 0 -13 -58 -19 -69 -8 -7 7 -15 6 -24 -1 -10 -9 -19 -8 -35 4 -12 8 -27 12
-32 9 -6 -3 -10 -1 -10 4 0 6 -7 11 -15 11 -8 0 -15 -6 -15 -12 0 -9 -4 -8
-10 2 -5 8 -10 11 -10 5 0 -5 -4 -4 -9 4 -8 12 -12 12 -25 2 -9 -8 -16 -9 -16
-4 0 4 -18 9 -41 10 -44 2 -49 4 -53 25 -4 28 -17 37 -45 32 -16 -4 -32 -1
-35 5 -4 6 -12 9 -17 6 -5 -4 -9 1 -9 9 0 9 -4 16 -10 16 -5 0 -10 -5 -10 -11
0 -17 -63 -2 -74 18 -8 15 -10 15 -23 -3 -9 -12 -16 -15 -21 -8 -4 5 -25 11
-47 13 -22 1 -62 13 -90 26 -27 13 -61 26 -74 30 -23 7 -46 23 -83 58 -10 9
-21 17 -26 17 -4 0 -23 20 -42 45 -19 24 -43 47 -52 50 -9 3 -20 15 -23 25 -3
10 -16 22 -28 26 -12 4 -39 23 -59 43 -45 43 -66 61 -72 61 -2 0 -29 25 -60
55 -30 30 -62 55 -70 55 -8 0 -32 20 -54 45 -22 25 -43 45 -47 45 -14 0 -66
61 -60 70 3 6 -3 10 -14 10 -11 0 -24 7 -29 16 -8 14 -11 14 -27 -2 -17 -17
-17 -17 -11 3 4 12 2 24 -4 28 -5 3 -10 15 -10 26 0 12 -7 19 -20 19 -11 0
-20 4 -20 9 0 5 -10 11 -22 15 -15 3 -29 21 -41 51 -11 25 -23 45 -27 45 -5 0
-12 10 -16 22 -3 12 -12 28 -19 35 -7 7 -21 34 -31 60 -9 27 -23 55 -30 63
-12 15 -42 120 -49 171 -2 16 -6 32 -9 37 -3 5 -8 47 -11 94 -3 47 -10 99 -15
117 -5 17 -6 31 -3 31 3 0 1 6 -5 13 -6 7 -9 22 -6 33 3 12 0 65 -6 120 -6 54
-13 140 -14 190 -2 50 -7 97 -12 105 -5 8 -9 41 -10 74 -1 33 -5 83 -8 110 -4
28 -8 59 -9 70 -1 11 -6 23 -10 26 -4 3 -9 48 -11 100 -2 52 -7 116 -11 143
-7 39 -6 48 5 41 9 -5 11 -4 6 3 -10 17 -14 199 -5 241 4 20 9 54 10 76 1 22
5 45 8 50 3 6 6 33 7 60 1 28 4 57 7 65 19 48 37 113 37 131 0 11 4 28 10 38
9 17 15 40 26 105 3 16 10 40 15 53 5 13 9 40 9 59 0 26 8 42 30 63 24 22 28
29 18 40 -11 10 -9 11 6 5 16 -6 17 -4 7 14 -14 26 -14 33 1 30 8 -2 11 8 9
30 -1 18 2 32 8 32 6 0 11 11 11 24 0 14 4 27 9 30 5 3 12 22 15 41 4 19 10
35 14 35 9 0 29 46 37 90 4 19 12 41 17 47 6 7 8 20 4 28 -3 8 -1 28 5 43 11
27 21 100 22 160 0 21 3 28 9 20 5 -9 8 -5 9 12 1 42 7 63 20 71 8 5 13 38 14
98 0 50 4 93 8 97 4 4 2 12 -3 19 -9 11 14 47 37 56 4 2 18 22 30 44 12 22 26
39 32 38 6 -2 18 11 26 28 22 42 69 83 137 120 32 18 55 35 52 40 -3 5 2 10
10 10 9 1 21 3 26 4 6 1 19 3 30 4 11 0 26 12 32 26 6 14 19 25 28 25 10 0 24
7 31 16 14 17 53 36 79 40 8 1 42 18 74 38 33 20 66 37 73 37 23 2 27 4 95 38
37 18 71 30 76 27 5 -3 15 1 22 9 6 7 18 11 26 8 8 -3 20 0 28 6 10 8 26 9 57
2 24 -5 45 -8 48 -5 2 2 -1 4 -7 4 -7 0 -12 4 -12 10 0 5 3 9 8 9 4 -1 9 0 12
1 16 7 181 6 186 -1 3 -5 11 -6 17 -2 24 15 72 11 93 -9 17 -15 24 -17 30 -6
6 9 10 4 14 -17 5 -26 9 -30 35 -27 17 2 37 10 46 18 9 8 27 13 40 13 13 -1
33 2 43 6 14 6 17 5 12 -4 -6 -8 3 -7 28 3 20 8 36 11 36 7 0 -22 211 -14 234
9 5 5 36 7 69 3 45 -5 61 -3 68 8 6 10 9 11 9 1 0 -8 8 -10 23 -7 12 4 36 1
52 -5 24 -9 33 -8 54 9 28 22 56 28 45 10z m1603 -2111 c-3 -8 -6 -5 -6 6 -1
11 2 17 5 13 3 -3 4 -12 1 -19z m-3564 -2818 c7 0 24 -12 38 -27 49 -52 108
-103 119 -103 12 0 77 -47 155 -111 24 -20 71 -56 104 -79 34 -24 61 -49 61
-56 0 -8 11 -14 24 -14 16 0 27 -7 31 -20 3 -10 21 -25 40 -31 21 -8 31 -17
28 -26 -3 -7 -1 -13 5 -13 6 0 21 -9 34 -20 12 -11 43 -35 66 -52 24 -18 72
-54 105 -79 34 -26 61 -51 60 -57 -2 -6 4 -9 13 -5 17 6 77 -44 68 -58 -9 -15
44 -41 68 -34 14 4 18 3 11 -2 -8 -6 2 -13 32 -22 25 -7 42 -17 39 -22 -3 -5
12 -9 33 -9 29 0 34 -3 23 -10 -11 -8 -5 -10 25 -10 39 0 59 -1 201 -15 117
-12 356 39 313 66 -10 6 -8 9 8 9 12 0 25 5 28 10 3 6 15 10 25 10 11 0 35 9
53 19 66 37 72 40 112 58 22 9 47 25 56 35 9 10 20 18 24 18 4 0 27 18 52 40
25 22 50 40 55 40 5 0 6 6 2 13 -4 6 -4 9 1 5 10 -9 60 25 102 70 17 19 36 32
41 28 5 -3 17 3 27 14 10 11 23 20 29 20 6 0 20 15 29 33 10 17 33 41 50 53
18 11 49 32 69 45 20 13 37 29 38 35 0 11 80 54 100 54 5 0 10 4 10 9 0 5 16
19 35 32 19 13 35 30 35 37 0 6 7 12 15 12 9 0 28 11 42 24 15 14 31 23 35 20
5 -3 8 -33 8 -67 -1 -34 1 -105 5 -157 3 -52 7 -152 8 -221 2 -103 5 -125 16
-121 10 4 13 -4 9 -34 -3 -21 1 -53 9 -71 7 -18 12 -42 10 -55 -2 -21 2 -23
38 -22 22 1 34 -1 28 -3 -19 -7 -16 -20 7 -26 11 -3 18 -1 14 4 -3 5 2 9 10 9
8 0 16 10 18 23 5 35 31 26 40 -13 20 -87 30 -228 17 -245 -17 -23 -80 -221
-72 -228 2 -3 -49 -63 -114 -136 -65 -72 -129 -144 -143 -160 -14 -17 -81 -62
-150 -102 -69 -39 -141 -81 -160 -92 -72 -43 -124 -67 -144 -67 -12 0 -30 -7
-40 -15 -11 -8 -32 -15 -47 -15 -15 0 -30 -4 -33 -9 -3 -4 -19 -11 -35 -14
-16 -4 -60 -27 -96 -52 -36 -25 -70 -45 -74 -45 -5 0 -14 -6 -20 -14 -18 -22
-169 -120 -237 -154 -42 -21 -79 -51 -115 -93 -30 -33 -105 -113 -168 -177
-96 -98 -118 -116 -140 -113 -14 1 -30 6 -36 11 -5 4 -23 10 -38 14 -17 4 -55
35 -95 78 -144 154 -504 525 -543 558 -22 19 -57 50 -77 67 -20 18 -40 33 -44
33 -5 0 -8 7 -8 15 0 8 -6 15 -12 15 -11 0 -100 69 -149 115 -9 8 -19 15 -23
15 -24 0 -108 77 -139 127 -35 56 -189 208 -248 246 -35 23 -64 82 -84 172
-15 70 -27 151 -18 127 4 -10 9 -9 24 4 10 9 19 23 19 31 0 7 7 16 15 19 8 4
15 16 15 28 0 12 11 30 25 40 50 38 64 75 70 187 10 183 13 209 26 225 9 11 9
21 1 39 -10 21 -9 23 5 18 13 -5 15 -2 10 17 -4 15 -1 30 8 40 11 12 12 24 6
48 -6 20 -6 34 0 38 6 3 8 12 6 18 -3 7 -1 48 4 91 5 45 5 85 -1 94 -13 23 20
53 38 34 7 -7 19 -13 25 -13z"/>
<path d="M3925 8191 c-3 -5 -20 -13 -38 -16 -17 -4 -57 -27 -88 -50 -64 -50
-109 -67 -109 -41 0 19 -11 21 -28 4 -10 -10 -15 -10 -21 0 -6 11 -10 10 -16
-5 -5 -10 -7 -22 -6 -28 8 -30 -13 -100 -36 -121 -20 -18 -25 -34 -28 -83 -3
-43 -1 -62 8 -63 42 -6 64 -1 80 19 11 14 34 24 65 29 26 4 50 11 53 17 13 19
123 49 160 43 20 -3 39 -3 43 1 16 17 97 13 156 -7 36 -12 66 -17 69 -12 17
26 154 9 223 -29 10 -5 25 -9 34 -9 13 0 14 -3 4 -15 -10 -12 -10 -15 1 -16
34 -1 -31 -18 -76 -19 -38 -1 -45 -4 -30 -10 11 -5 37 -9 59 -9 55 -1 112 -20
136 -46 l21 -22 -48 9 c-108 21 -244 20 -332 0 -55 -13 -92 -17 -107 -12 -12
5 -25 7 -28 4 -3 -2 -1 3 6 10 20 22 98 44 182 52 42 4 79 11 83 17 4 6 -10 8
-38 4 -24 -4 -73 -9 -109 -13 -70 -6 -213 -43 -218 -56 -2 -4 -15 -8 -28 -8
-13 0 -24 -4 -24 -10 0 -5 -7 -10 -15 -10 -24 0 -50 -51 -51 -100 -1 -25 -4
-52 -8 -61 -9 -21 18 -49 48 -49 16 0 30 -14 51 -50 17 -27 41 -54 55 -59 44
-18 80 -24 80 -13 0 5 -8 9 -17 8 -14 -1 -18 7 -18 29 0 17 4 33 8 36 4 3 -4
26 -18 50 -30 53 -33 82 -7 77 9 -1 31 7 47 18 29 21 129 74 139 74 3 0 2 -16
-1 -35 -8 -48 20 -117 62 -154 59 -52 147 -53 205 -4 41 34 58 70 66 137 4 31
9 56 11 56 20 0 107 -57 136 -89 20 -23 41 -41 46 -41 5 0 11 -9 14 -20 3 -14
14 -20 31 -20 14 0 26 3 26 8 0 11 -52 85 -69 98 -19 15 -24 44 -5 37 8 -3 14
-9 14 -14 0 -5 14 -9 30 -9 17 0 30 3 30 8 0 16 63 34 101 28 36 -6 39 -5 40
19 2 37 3 43 11 50 4 4 4 14 1 23 -4 9 -2 13 4 9 13 -8 0 39 -23 86 -8 16 -14
33 -14 38 0 20 -62 86 -100 108 -22 12 -40 26 -40 32 0 5 -6 9 -14 9 -8 0 -36
9 -63 21 -76 34 -99 38 -125 26 -29 -15 -152 -11 -266 8 -48 9 -66 25 -27 25
21 0 25 4 20 19 -4 13 0 20 17 24 32 9 21 13 -44 20 -45 4 -58 3 -58 -8 0 -25
-21 -28 -44 -6 -15 14 -36 21 -62 21 -23 0 -49 8 -64 20 -26 20 -104 28 -115
11z m410 -586 c0 -22 -31 -33 -47 -17 -17 17 -1 44 24 40 15 -2 23 -10 23 -23z
m120 -10 c0 -25 -40 -33 -49 -10 -9 24 2 37 27 33 14 -2 22 -10 22 -23z"/>
<path d="M6588 8158 c-5 -14 -85 -38 -104 -31 -23 9 -104 -30 -104 -49 0 -13
-8 -18 -27 -17 l-28 0 25 11 25 11 -23 5 c-13 2 -38 -2 -55 -9 -18 -8 -54 -14
-82 -15 -159 -6 -265 -28 -371 -76 -22 -10 -46 -18 -52 -18 -7 0 -12 -4 -12
-10 0 -5 -18 -13 -39 -16 -49 -8 -71 -33 -94 -105 -20 -67 -21 -70 -4 -63 7 2
13 -4 14 -16 1 -11 -2 -20 -8 -20 -16 0 -10 -29 17 -80 20 -38 36 -54 72 -72
58 -28 80 -30 110 -11 37 23 35 10 -3 -30 -33 -35 -48 -87 -25 -87 6 0 10 7
10 15 0 29 163 132 192 123 6 -2 12 -29 13 -59 2 -66 22 -104 76 -143 36 -25
47 -28 95 -24 89 8 138 56 157 155 l11 60 43 -14 c28 -10 55 -29 75 -54 22
-27 37 -38 49 -34 25 8 33 -12 15 -40 -20 -31 -20 -34 4 -65 l19 -25 25 28
c13 16 27 28 30 27 15 -2 66 32 66 43 0 7 -7 23 -16 35 -8 12 -13 22 -9 22 9
0 -26 61 -50 88 -19 20 -27 23 -38 14 -8 -7 -17 -9 -20 -5 -4 3 -7 1 -7 -4 0
-12 -18 -12 -35 -1 -26 16 -166 59 -220 68 -33 5 -97 10 -143 11 -65 1 -80 4
-72 14 8 10 8 15 -1 21 -24 14 46 38 126 42 133 7 296 -48 341 -115 20 -29 22
-30 37 -15 16 15 19 14 52 -18 25 -24 35 -29 35 -18 0 25 -72 81 -165 127 -76
38 -108 48 -227 67 -21 4 -38 11 -38 16 0 6 -7 8 -15 4 -13 -4 -13 -2 -5 14
16 30 77 41 147 26 17 -4 49 -1 74 8 62 20 245 13 272 -12 10 -9 35 -17 56
-18 61 -2 91 -12 85 -29 -4 -9 0 -15 9 -15 9 0 31 -9 50 -20 23 -14 44 -19 60
-15 23 6 25 10 22 68 -1 48 -8 71 -29 101 -36 53 -65 74 -77 55 -7 -11 -9 -11
-9 -1 0 7 -6 20 -14 28 -8 7 -16 18 -18 23 -1 6 -15 12 -30 15 -34 6 -68 24
-68 36 0 6 -5 10 -11 10 -6 0 -24 11 -41 25 -16 14 -35 25 -42 25 -7 0 -21 9
-31 20 -20 22 -41 26 -47 8z m-438 -594 c11 -12 11 -18 -2 -30 -18 -18 -48 -8
-48 15 0 33 28 42 50 15z m118 -21 c3 -19 -1 -23 -22 -23 -21 0 -26 5 -26 26
0 21 4 25 23 22 14 -2 23 -11 25 -25z"/>
<path d="M4415 8150 c3 -5 11 -10 16 -10 6 0 7 5 4 10 -3 6 -11 10 -16 10 -6
0 -7 -4 -4 -10z"/>
<path d="M3465 8100 c3 -5 8 -10 11 -10 2 0 4 5 4 10 0 6 -5 10 -11 10 -5 0
-7 -4 -4 -10z"/>
<path d="M3458 8055 c-7 -7 10 -87 20 -97 13 -13 29 7 35 45 5 34 4 37 -14 32
-13 -4 -19 -2 -19 9 0 16 -12 21 -22 11z"/>
<path d="M5610 7855 c-6 -8 -10 -22 -8 -32 3 -14 8 -11 21 15 18 32 9 44 -13
17z"/>
<path d="M4758 7423 c7 -3 16 -2 19 1 4 3 -2 6 -13 5 -11 0 -14 -3 -6 -6z"/>
<path d="M5788 7403 c7 -3 16 -2 19 1 4 3 -2 6 -13 5 -11 0 -14 -3 -6 -6z"/>
<path d="M4268 7363 c7 -3 16 -2 19 1 4 3 -2 6 -13 5 -11 0 -14 -3 -6 -6z"/>
<path d="M6165 7340 c3 -5 10 -10 16 -10 5 0 9 5 9 10 0 6 -7 10 -16 10 -8 0
-12 -4 -9 -10z"/>
<path d="M6240 7330 c0 -5 19 -10 43 -10 31 0 38 3 27 10 -20 13 -70 13 -70 0z"/>
<path d="M4864 6256 c-8 -20 2 -74 17 -93 20 -23 56 -16 63 12 7 28 40 45 87
45 16 0 29 4 29 9 0 14 -58 31 -127 38 -53 5 -64 3 -69 -11z"/>
<path d="M5581 6228 c-24 -4 -46 -10 -50 -13 -8 -9 21 -25 47 -25 12 0 23 -4
23 -10 1 -5 2 -20 3 -32 1 -19 6 -22 31 -20 17 2 32 8 33 13 2 5 7 7 12 4 10
-6 50 42 50 61 0 7 -4 15 -9 18 -16 10 -95 12 -140 4z"/>
<path d="M4862 6050 c-28 -27 -56 -50 -61 -50 -5 0 -12 -8 -16 -19 -3 -10 -13
-18 -23 -17 -11 1 -16 -5 -14 -16 2 -10 -3 -18 -11 -18 -7 0 -23 -13 -34 -28
-17 -23 -27 -28 -51 -24 -24 3 -31 0 -37 -17 -7 -23 -25 -27 -41 -11 -7 7 -20
0 -39 -20 -16 -16 -32 -30 -36 -30 -13 0 -59 -50 -59 -63 0 -8 -4 -7 -10 3 -7
12 -12 12 -29 -4 -11 -10 -21 -27 -23 -39 -2 -11 -10 -22 -18 -24 -12 -4 -12
-3 -1 5 10 7 10 11 1 17 -15 9 -62 -3 -55 -15 3 -5 -7 -10 -22 -12 -20 -2 -29
-9 -31 -25 -2 -13 -9 -23 -16 -23 -17 0 -33 -50 -26 -80 7 -32 40 -40 40 -11
0 12 6 21 15 21 8 0 15 5 15 11 0 7 10 9 25 5 21 -5 27 -2 36 21 5 15 8 38 4
50 -4 16 -1 23 9 23 20 0 29 -17 14 -24 -7 -3 5 -3 27 0 30 4 49 16 75 45 19
22 43 39 52 39 17 0 41 20 56 47 7 11 14 13 27 6 21 -12 68 27 84 68 13 36 59
37 67 2 9 -33 24 -25 43 25 17 42 31 47 31 10 0 -22 9 -23 25 -1 15 21 47 11
38 -13 -12 -32 29 -10 48 26 11 19 19 29 19 22 0 -20 44 -14 58 8 10 17 10 20
-3 20 -18 0 -19 24 -3 53 17 29 17 87 1 87 -7 0 -13 5 -13 10 0 6 -20 10 -43
10 -39 0 -49 -6 -95 -50z"/>
<path d="M5531 6054 c-27 -31 -43 -81 -35 -108 3 -10 1 -22 -6 -26 -16 -10 -4
-31 13 -24 7 2 21 -9 30 -26 16 -27 22 -30 52 -24 18 3 51 7 72 9 21 2 41 4
46 4 12 1 8 26 -9 59 -8 18 -13 41 -9 52 4 13 1 22 -9 26 -9 3 -16 12 -16 20
0 7 -10 19 -22 25 -13 7 -27 18 -31 25 -13 22 -52 16 -76 -12z"/>
<path d="M5640 5840 c0 -5 5 -10 11 -10 5 0 7 5 4 10 -3 6 -8 10 -11 10 -2 0
-4 -4 -4 -10z"/>
<path d="M5887 5773 c-15 -15 -5 -25 18 -19 26 7 35 -8 13 -18 -10 -5 -10 -7
0 -12 15 -7 52 -77 52 -99 0 -9 7 -18 15 -21 17 -7 21 -54 4 -54 -6 0 -8 7 -5
16 5 13 1 14 -23 9 -53 -11 -86 -8 -155 15 -59 19 -81 21 -179 17 -74 -3 -122
-10 -141 -21 -19 -9 -34 -12 -41 -6 -6 5 -21 7 -33 3 -12 -3 -28 0 -35 6 -8 6
-17 8 -21 4 -3 -4 -13 2 -20 13 -14 19 -15 19 -46 1 -26 -16 -36 -17 -60 -7
-18 7 -35 8 -47 3 -27 -14 -84 -15 -99 -2 -8 6 -21 9 -29 5 -9 -3 -18 1 -21 8
-3 8 -23 17 -45 21 -21 4 -41 11 -45 16 -6 10 -57 12 -67 3 -4 -4 -21 -8 -39
-9 -47 -3 -184 -32 -207 -44 -11 -6 -33 -11 -49 -11 -25 0 -32 -6 -41 -31 -6
-18 -11 -34 -11 -36 0 -2 24 -4 53 -3 28 0 74 -1 100 -3 31 -2 52 1 59 10 6 7
15 13 21 13 6 0 7 -3 4 -7 -13 -12 37 -30 56 -21 12 6 36 6 65 -1 54 -11 83
-11 76 1 -3 4 2 8 10 8 14 0 14 3 4 20 -10 16 -10 22 3 35 14 14 24 14 105 0
49 -9 127 -18 174 -21 122 -8 123 -8 128 -21 2 -8 -6 -13 -22 -13 -14 0 -26
-5 -26 -11 0 -7 8 -9 23 -4 41 13 169 14 201 1 25 -10 36 -10 60 2 22 11 33
12 47 4 9 -6 39 -12 66 -13 26 -1 52 -4 57 -7 5 -3 45 -6 88 -7 59 -2 81 1 87
12 6 12 23 19 53 22 4 1 5 8 2 16 -9 21 22 19 38 -2 7 -10 28 -19 48 -20 23
-2 42 -11 58 -28 17 -20 22 -22 22 -9 0 10 5 14 15 10 8 -3 15 -1 15 4 0 12
-23 64 -31 70 -3 3 -12 23 -19 45 -17 53 -39 85 -64 95 -12 4 -21 16 -21 26 0
14 -7 19 -25 19 -14 0 -29 3 -35 6 -5 4 -19 5 -29 3 -25 -4 -42 6 -27 16 7 4
-8 7 -32 8 -24 1 -47 -1 -50 -5z m-929 -210 c2 -8 -6 -13 -22 -13 -17 0 -26 5
-26 16 0 19 41 16 48 -3z"/>
<path d="M5008 5523 c7 -3 16 -2 19 1 4 3 -2 6 -13 5 -11 0 -14 -3 -6 -6z"/>
<path d="M5060 5510 c8 -5 24 -10 34 -10 26 0 18 6 -19 14 -22 5 -26 4 -15 -4z"/>
<path d="M5300 5500 c0 -5 7 -7 15 -4 8 4 15 8 15 10 0 2 -7 4 -15 4 -8 0 -15
-4 -15 -10z"/>
<path d="M5198 5493 c18 -2 45 -2 60 0 15 2 0 4 -33 4 -33 0 -45 -2 -27 -4z"/>
<path d="M6205 5450 c3 -5 8 -10 11 -10 2 0 4 5 4 10 0 6 -5 10 -11 10 -5 0
-7 -4 -4 -10z"/>
<path d="M5088 5179 c-16 -15 -44 -29 -67 -33 -71 -11 -82 -58 -16 -70 20 -4
39 -14 42 -22 3 -7 11 -14 17 -14 7 0 23 -12 37 -26 19 -20 31 -25 56 -21 20
4 36 1 43 -9 9 -10 17 -11 30 -4 10 6 26 10 35 10 29 0 84 31 90 51 4 11 10
17 15 14 10 -6 20 19 20 54 0 21 -10 35 -45 60 -25 18 -52 30 -60 27 -8 -3
-15 -2 -15 2 0 4 -35 8 -77 8 -71 0 -80 -2 -105 -27z"/>
<path d="M7539 7552 c-25 -27 -30 -64 -12 -84 32 -35 72 19 57 77 -7 29 -22
31 -45 7z"/>
</g>
</svg>
